<svg xmlns="http://www.w3.org/2000/svg" viewBox="-0.003 0.210427 13.96 9.032">
	<path
		d="M -0.003 3.845 C 2.265 2.396 5.965 2.175 7.838 5.178 C 9.133 7.216 9.958 6.897 11.13 7.241 C 11.576 6.84 12.149 6.458 12.908 6.353 C 12.768 5.305 11.915 5.38 11.153 5.619 C 12.448 4.546 13.237 5.205 13.457 6.003 C 13.566 6.433 13.696 6.652 13.954 6.978 C 13.081 6.509 12.448 6.982 11.39 7.99 C 10.302 8.988 8.964 9.567 7.567 9.048 C 6.342 8.594 5.051 8.739 3.833 9.048 C 4.901 8.18 5.53 8.03 7.397 8.29 C 8.197 8.419 8.465 8.32 8.944 8.12 C 8.325 8.07 7.307 7.671 6.109 6.672 C 5.43 6.103 3.56 3.819 1.477 3.687 C 0.857 3.647 0.504 3.673 0.07 3.82 Z M 13.002 0.267 C 13.002 0.267 13.002 0.267 13.002 0.267 C 11.17 0.872 9.489 2.486 10.094 6.185 C 6.412 2.923 10.01 -0.255 12.986 0.267 Z" />
</svg>